<svg width="116" height="117" viewBox="0 0 116 117" fill="none" xmlns="http://www.w3.org/2000/svg">
<path d="M82.1387 98.3475L85.334 103.863L86.1447 103.393L86.9042 104.704L83.9175 106.435L83.158 105.124L83.9687 104.654L80.7734 99.1385L82.1387 98.3475Z" fill="black"/>
<path d="M79.4543 99.8734L82.7788 107.028L81.2828 107.723L80.5103 106.061C80.5375 106.325 80.4949 106.549 80.3827 106.733C80.2717 106.919 80.1078 107.063 79.891 107.164C79.4682 107.36 79.0989 107.37 78.7831 107.194C78.4673 107.018 78.2055 106.706 77.9977 106.259L75.816 101.564L77.2875 100.88L79.4258 105.482C79.4875 105.615 79.5664 105.71 79.6623 105.767C79.7556 105.826 79.8618 105.828 79.981 105.773C80.0813 105.726 80.1411 105.646 80.1604 105.531C80.1771 105.418 80.1577 105.302 80.1023 105.182L77.9583 100.568L79.4543 99.8734Z" fill="black"/>
<path d="M73.407 102.345C73.8582 102.187 74.2475 102.146 74.5747 102.221C74.9019 102.296 75.1791 102.473 75.4064 102.751C75.6337 103.03 75.8259 103.393 75.9831 103.841L76.8769 106.392C77.0834 106.982 77.0703 107.487 76.8376 107.907C76.6059 108.33 76.1939 108.645 75.6016 108.853C74.3833 109.28 73.5646 108.895 73.1456 107.7L72.984 107.238C72.7884 106.68 72.6626 106.303 72.6067 106.107L74.8065 105.336L74.3767 104.11C74.3371 103.997 74.2911 103.888 74.2384 103.783C74.1868 103.681 74.1246 103.603 74.052 103.549C73.9765 103.496 73.8838 103.489 73.7738 103.528C73.6158 103.583 73.5408 103.685 73.5488 103.835C73.5577 103.987 73.6007 104.173 73.6778 104.393L73.8913 105.002L72.3852 105.529L72.2592 105.17C72.0932 104.696 72.0131 104.278 72.0189 103.915C72.0229 103.555 72.1358 103.245 72.3577 102.984C72.5778 102.726 72.9275 102.513 73.407 102.345ZM75.0788 106.087L74.3596 106.339L74.6591 107.193C74.7391 107.422 74.8246 107.575 74.9156 107.654C75.0076 107.736 75.11 107.757 75.2228 107.718C75.3441 107.675 75.4218 107.594 75.4558 107.474C75.4871 107.356 75.4612 107.178 75.3782 106.941L75.0788 106.087Z" fill="black"/>
<path d="M65.8896 104.288C66.148 104.24 66.3698 104.263 66.5553 104.359C66.7412 104.457 66.9074 104.628 67.0538 104.871L66.9203 104.166L68.5235 103.862L69.992 111.614L68.3889 111.918L68.0384 110.068C67.9877 110.33 67.89 110.545 67.7453 110.712C67.5982 110.883 67.3646 110.999 67.0446 111.059C66.6129 111.141 66.2793 111.041 66.0436 110.761C65.805 110.48 65.6375 110.086 65.5413 109.578L64.9255 106.328C64.8615 105.99 64.8507 105.676 64.8929 105.385C64.9327 105.098 65.0345 104.857 65.1983 104.661C65.3597 104.469 65.5901 104.345 65.8896 104.288ZM66.7742 105.394C66.6068 105.425 66.5211 105.527 66.517 105.698C66.513 105.869 66.5337 106.075 66.5793 106.316L67.0683 108.897C67.1145 109.14 67.1705 109.34 67.2363 109.494C67.3027 109.652 67.4181 109.716 67.5825 109.684C67.7528 109.652 67.8412 109.549 67.8477 109.374C67.8547 109.202 67.8357 108.998 67.7906 108.76L67.3016 106.179C67.2566 105.941 67.1991 105.742 67.1292 105.582C67.0599 105.425 66.9416 105.362 66.7742 105.394Z" fill="black"/>
<path d="M62.0717 104.773C62.548 104.73 62.9355 104.785 63.2342 104.939C63.533 105.092 63.7584 105.331 63.9106 105.657C64.0627 105.982 64.1599 106.381 64.2023 106.855L64.4433 109.547C64.4989 110.169 64.3624 110.655 64.0338 111.006C63.7054 111.359 63.2286 111.564 62.6035 111.62C61.3177 111.735 60.6183 111.161 60.5053 109.899L60.4618 109.413C60.409 108.823 60.3796 108.427 60.3734 108.223L62.695 108.016L62.5791 106.721C62.5685 106.602 62.5505 106.485 62.5252 106.37C62.5002 106.258 62.4591 106.168 62.4018 106.098C62.3416 106.028 62.2535 105.998 62.1374 106.009C61.9707 106.024 61.8729 106.105 61.844 106.251C61.8154 106.401 61.8115 106.592 61.8323 106.824L61.8898 107.467L60.3003 107.609L60.2664 107.229C60.2216 106.729 60.2466 106.304 60.3412 105.954C60.4331 105.606 60.6187 105.333 60.8979 105.134C61.1745 104.938 61.5657 104.818 62.0717 104.773ZM62.7751 108.81L62.0161 108.878L62.0968 109.779C62.1184 110.021 62.1636 110.19 62.2324 110.289C62.3016 110.391 62.3957 110.437 62.5147 110.426C62.6427 110.415 62.7379 110.355 62.8003 110.248C62.8597 110.14 62.8782 109.962 62.8558 109.711L62.7751 108.81Z" fill="black"/>
<path d="M57.572 104.949C58.8988 104.957 59.5579 105.634 59.5492 106.979L59.5457 107.512L57.932 107.502L57.9371 106.713C57.9381 106.56 57.909 106.44 57.8498 106.353C57.7906 106.266 57.6952 106.222 57.5638 106.222C57.3307 106.22 57.213 106.394 57.2107 106.744C57.2088 107.037 57.2687 107.255 57.3903 107.399C57.5119 107.547 57.6604 107.688 57.8358 107.824L58.6877 108.488C58.9553 108.699 59.1586 108.921 59.2975 109.155C59.4365 109.389 59.5046 109.714 59.5019 110.13C59.4994 110.515 59.4062 110.833 59.2223 111.083C59.0354 111.332 58.7907 111.518 58.4881 111.638C58.1825 111.759 57.8534 111.818 57.5007 111.816C56.1978 111.807 55.5506 111.153 55.5589 109.853L55.5598 109.728L57.2183 109.738L57.2166 109.994C57.2158 110.128 57.2388 110.258 57.2858 110.384C57.3299 110.51 57.4191 110.573 57.5536 110.574C57.7807 110.576 57.895 110.457 57.8966 110.218C57.8981 109.976 57.8037 109.785 57.6134 109.647L56.6229 108.914C56.3136 108.688 56.0553 108.42 55.8481 108.111C55.6379 107.802 55.5345 107.392 55.5378 106.881C55.5419 106.247 55.7258 105.766 56.0895 105.437C56.4503 105.107 56.9444 104.944 57.572 104.949Z" fill="black"/>
<path d="M53.57 104.743C54.0017 104.78 54.2856 104.896 54.4217 105.091C54.5546 105.289 54.6047 105.576 54.5719 105.954L54.2102 110.13L54.6613 110.169L54.5556 111.388L54.1046 111.349L53.9816 112.769L52.4274 112.635L52.5505 111.215L52.0994 111.176L52.205 109.956L52.6561 109.995L52.9853 106.195C52.9948 106.085 52.9837 106.006 52.9518 105.958C52.92 105.91 52.8534 105.882 52.7522 105.873C52.6807 105.867 52.6162 105.868 52.5586 105.875L52.653 104.785C52.6898 104.776 52.8034 104.763 52.9938 104.747C53.1844 104.727 53.3765 104.726 53.57 104.743Z" fill="black"/>
<path d="M49.5449 104.346L47.9348 110.875L46.4115 110.499L46.5983 109.742C46.4628 109.992 46.2934 110.167 46.09 110.267C45.8867 110.368 45.6225 110.378 45.2976 110.298C45.0364 110.234 44.8295 110.118 44.6768 109.951C44.5204 109.786 44.4289 109.596 44.4021 109.38C44.2302 109.565 44.0508 109.694 43.864 109.765C43.6737 109.838 43.429 109.837 43.1302 109.764C42.7675 109.674 42.5083 109.527 42.3525 109.322C42.1932 109.12 42.1097 108.872 42.1023 108.577C42.0912 108.285 42.1301 107.959 42.2188 107.6L43.3953 102.83L44.949 103.213L43.7661 108.009C43.6623 108.43 43.7178 108.667 43.9325 108.72C44.0457 108.747 44.1424 108.73 44.2226 108.666C44.3021 108.606 44.3675 108.522 44.4186 108.415C44.4697 108.307 44.5092 108.197 44.5371 108.084L45.6932 103.396L47.247 103.78L46.064 108.576C46.0304 108.712 46.0142 108.853 46.0154 108.998C46.0136 109.142 46.081 109.231 46.2173 109.265C46.3334 109.293 46.4337 109.273 46.5183 109.205C46.6029 109.137 46.6722 109.043 46.7261 108.924C46.7794 108.808 46.8207 108.69 46.8501 108.571L47.9868 103.962L49.5449 104.346Z" fill="black"/>
<path d="M41.2521 101.862C42.5045 102.335 42.8852 103.222 42.3941 104.522L41.4405 107.046C41.2166 107.639 40.8718 108.048 40.4061 108.275C39.9393 108.504 39.4123 108.508 38.8253 108.286C38.2354 108.063 37.8412 107.712 37.6426 107.231C37.443 106.753 37.4551 106.218 37.679 105.625L38.6327 103.101C39.1237 101.801 39.9969 101.388 41.2521 101.862ZM40.8149 103.019C40.6891 102.972 40.5827 102.983 40.4958 103.052C40.405 103.123 40.3333 103.229 40.2805 103.369L39.1193 106.442C38.981 106.809 39.0292 107.036 39.264 107.125C39.4989 107.213 39.6855 107.075 39.8238 106.708L40.9849 103.635C41.0377 103.495 41.055 103.369 41.0367 103.257C41.0146 103.146 40.9407 103.067 40.8149 103.019Z" fill="black"/>
<path d="M37.6604 100.318C37.9392 100.455 38.1352 100.615 38.2485 100.797C38.3618 100.98 38.4144 101.181 38.4063 101.4C38.3981 101.619 38.348 101.856 38.2559 102.11C38.1611 102.364 38.0456 102.628 37.9095 102.904L36.6172 105.526C36.3886 105.989 36.1218 106.324 35.8169 106.531C35.5093 106.735 35.1585 106.741 34.7645 106.546C34.4724 106.402 34.2796 106.229 34.1863 106.026C34.0889 105.825 34.0522 105.592 34.0761 105.327L33.2436 107.016L31.7801 106.295L35.2687 99.2184L36.7322 99.9399L36.417 100.579C36.6044 100.402 36.7962 100.283 36.9924 100.223C37.1858 100.162 37.4085 100.193 37.6604 100.318ZM36.5546 101.172C36.4179 101.104 36.2997 101.114 36.2 101.202C36.0975 101.288 35.9763 101.473 35.8362 101.757L34.5855 104.294C34.5155 104.436 34.4682 104.586 34.4437 104.744C34.4152 104.903 34.4719 105.018 34.614 105.088C34.7695 105.164 34.8997 105.147 35.0046 105.036C35.1096 104.924 35.2004 104.791 35.277 104.635L36.5278 102.098C36.7762 101.594 36.7851 101.285 36.5546 101.172Z" fill="black"/>
<path d="M33.1914 97.8582C33.5978 98.1101 33.8744 98.3871 34.0213 98.689C34.1681 98.991 34.2047 99.3178 34.1309 99.6693C34.0571 100.021 33.8951 100.399 33.6447 100.802L32.2207 103.1C31.8916 103.631 31.4905 103.938 31.0172 104.021C30.5424 104.106 30.0382 103.983 29.5048 103.653C28.4075 102.973 28.1927 102.094 28.8602 101.017L29.1176 100.602C29.4294 100.099 29.6438 99.7641 29.7611 99.5977L31.7423 100.826L32.4272 99.7208C32.4901 99.6192 32.546 99.5149 32.5947 99.408C32.6418 99.3036 32.6635 99.2063 32.6596 99.116C32.6533 99.0242 32.6006 98.9476 32.5015 98.8862C32.3593 98.798 32.2326 98.8039 32.1214 98.9037C32.0087 99.0061 31.891 99.1564 31.7682 99.3545L31.4281 99.9032L30.0717 99.0625L30.2725 98.7386C30.537 98.3119 30.8123 97.9868 31.0985 97.7634C31.3805 97.5409 31.6929 97.4339 32.0357 97.4425C32.3744 97.452 32.7596 97.5906 33.1914 97.8582ZM31.3295 101.509L30.6818 101.107L30.2048 101.877C30.0773 102.083 30.0113 102.246 30.007 102.366C30.0012 102.489 30.049 102.582 30.1506 102.645C30.2598 102.713 30.3717 102.722 30.4862 102.674C30.5981 102.623 30.7202 102.492 30.8525 102.278L31.3295 101.509Z" fill="black"/>
<path d="M30.8898 96.4233L26.2397 102.797L24.9216 101.835L29.5717 95.4616L30.8898 96.4233Z" fill="black"/>
<path d="M27.5162 93.7022C28.527 94.5616 28.5969 95.5036 27.7257 96.5281L27.3802 96.9345L26.1508 95.8892L26.6619 95.2882C26.7606 95.172 26.8153 95.0616 26.8259 94.9569C26.8365 94.8521 26.7917 94.7572 26.6915 94.672C26.5139 94.521 26.3119 94.5787 26.0854 94.8451C25.8957 95.0682 25.801 95.2741 25.8015 95.4627C25.8 95.6536 25.8228 95.8574 25.87 96.0741L26.0954 97.1307C26.1648 97.4643 26.1775 97.7654 26.1336 98.0339C26.0896 98.3025 25.933 98.595 25.664 98.9115C25.4142 99.2052 25.1386 99.3886 24.8372 99.4617C24.5334 99.533 24.2269 99.5175 23.9175 99.4153C23.606 99.3112 23.3158 99.1449 23.0472 98.9165C22.0546 98.0725 21.9793 97.1553 22.8214 96.165L22.9027 96.0694L24.1662 97.1437L24.0007 97.3384C23.9136 97.4408 23.8476 97.5553 23.8027 97.6819C23.7556 97.8066 23.7832 97.9125 23.8857 97.9996C24.0587 98.1467 24.2226 98.1292 24.3775 97.9471C24.5343 97.7627 24.5844 97.5561 24.5277 97.3275L24.24 96.1297C24.1484 95.7576 24.1226 95.3866 24.1626 95.0166C24.2004 94.6446 24.3848 94.264 24.7158 93.8747C25.1262 93.392 25.5765 93.1415 26.0669 93.123C26.555 93.1026 27.0381 93.2956 27.5162 93.7022Z" fill="black"/>
<path d="M21.59 90.5235C21.8873 90.855 22.0142 91.2048 21.9709 91.5727C21.9254 91.9427 21.7346 92.2783 21.3987 92.5796C21.0605 92.8829 20.7062 93.036 20.3356 93.0392C19.9651 93.0423 19.6312 92.8781 19.334 92.5466C19.0367 92.215 18.9097 91.8653 18.953 91.4973C18.9944 91.1271 19.1841 90.7904 19.5223 90.4871C19.8582 90.1859 20.2136 90.0338 20.5883 90.0309C20.9588 90.0278 21.2927 90.192 21.59 90.5235Z" fill="black"/>
<path d="M19.6773 85.238L14.4259 88.851L14.9569 89.6229L13.7086 90.4816L11.7522 87.638L13.0005 86.7793L13.5315 87.5511L18.7829 83.9381L19.6773 85.238Z" fill="black"/>
<path d="M17.9483 82.6799L11.0727 86.5488L10.2637 85.1111L11.8615 84.2121C11.6003 84.2596 11.3736 84.2346 11.1815 84.137C10.9867 84.0408 10.8308 83.8885 10.7135 83.6802C10.4849 83.2739 10.4462 82.9065 10.5974 82.5779C10.7486 82.2494 11.039 81.9642 11.4687 81.7224L15.9809 79.1835L16.7766 80.5977L12.3544 83.0861C12.2267 83.1579 12.138 83.2438 12.088 83.344C12.0366 83.4415 12.0431 83.5475 12.1076 83.6621C12.1618 83.7585 12.2467 83.8119 12.3623 83.8223C12.4764 83.8301 12.5908 83.8017 12.7053 83.7372L17.1393 81.2423L17.9483 82.6799Z" fill="black"/>
<path d="M15.0155 76.842C15.2081 77.2797 15.2796 77.6645 15.2298 77.9966C15.18 78.3287 15.0253 78.6188 14.7655 78.8669C14.5058 79.1151 14.1585 79.3349 13.7236 79.5263L11.2495 80.615C10.6779 80.8666 10.1735 80.8927 9.73637 80.6932C9.29651 80.495 8.9502 80.1087 8.69742 79.5343C8.17742 78.3526 8.4973 77.5066 9.65705 76.9963L10.1043 76.7995C10.6458 76.5611 11.012 76.4065 11.2029 76.3356L12.1417 78.4691L13.3316 77.9455C13.441 77.8974 13.546 77.843 13.6467 77.7823C13.7446 77.7229 13.8175 77.6549 13.8654 77.5783C13.9122 77.499 13.912 77.406 13.8651 77.2993C13.7977 77.1462 13.6899 77.0793 13.5418 77.0988C13.3909 77.1195 13.2088 77.1768 12.9954 77.2707L12.4046 77.5307L11.7618 76.07L12.1106 75.9166C12.5701 75.7143 12.981 75.6021 13.3434 75.5797C13.7019 75.5558 14.02 75.6444 14.2978 75.8454C14.5717 76.0448 14.8109 76.377 15.0155 76.842ZM11.415 78.7987L11.1081 78.1012L10.2793 78.4659C10.0578 78.5634 9.91115 78.6606 9.83949 78.7574C9.76509 78.8555 9.75197 78.9592 9.80011 79.0686C9.85187 79.1862 9.9387 79.2574 10.0606 79.2821C10.1813 79.3041 10.3565 79.2645 10.5863 79.1634L11.415 78.7987Z" fill="black"/>
<path d="M12.4954 69.4977C12.5642 69.7515 12.5581 69.9746 12.4771 70.1668C12.3932 70.3599 12.2358 70.5388 12.0049 70.7036L12.6971 70.5159L13.1241 72.0907L5.50973 74.1554L5.08272 72.5806L6.89979 72.0878C6.63459 72.0576 6.41297 71.9768 6.23494 71.8455C6.05323 71.7121 5.91976 71.4882 5.83451 71.1738C5.71955 70.7498 5.79291 70.4094 6.0546 70.1527C6.3155 69.8931 6.69545 69.6956 7.19442 69.5603L10.3873 68.6946C10.719 68.6046 11.0314 68.5694 11.3247 68.589C11.6143 68.6065 11.8628 68.6892 12.0702 68.8374C12.2739 68.9834 12.4156 69.2035 12.4954 69.4977ZM11.4619 70.4653C11.4173 70.3009 11.3096 70.2233 11.1387 70.2325C10.9678 70.2417 10.7641 70.2783 10.5276 70.3425L7.99233 71.0299C7.75294 71.0948 7.55862 71.1661 7.40937 71.2437C7.25724 71.3221 7.20307 71.4421 7.24687 71.6036C7.29223 71.7709 7.40219 71.851 7.57676 71.8439C7.74845 71.8376 7.9511 71.8028 8.18472 71.7394L10.72 71.052C10.9536 70.9886 11.1475 70.9159 11.3018 70.8338C11.4531 70.7526 11.5065 70.6297 11.4619 70.4653Z" fill="black"/>
<path d="M11.7169 65.7292C11.7963 66.2007 11.7711 66.5913 11.6414 66.901C11.5118 67.2108 11.2906 67.4541 10.9779 67.631C10.6653 67.8079 10.2747 67.9358 9.80612 68.0147L7.14063 68.4635C6.52473 68.5672 6.02934 68.4688 5.65448 68.1682C5.27667 67.8682 5.03566 67.4088 4.93146 66.7899C4.7171 65.5168 5.23466 64.7751 6.48415 64.5647L6.96598 64.4836C7.54946 64.3853 7.9424 64.3252 8.14477 64.3033L8.53181 66.6019L9.81372 66.386C9.9316 66.3662 10.0468 66.3392 10.1592 66.3051C10.2687 66.2715 10.3561 66.2235 10.4213 66.161C10.4861 66.0955 10.5088 66.0053 10.4894 65.8904C10.4616 65.7254 10.3735 65.6342 10.2251 65.6167C10.0738 65.5998 9.88317 65.6107 9.65331 65.6494L9.01678 65.7565L8.75181 64.1829L9.12754 64.1196C9.62262 64.0363 10.0486 64.0282 10.4053 64.0954C10.7587 64.1601 11.0454 64.324 11.2654 64.587C11.482 64.8475 11.6325 65.2282 11.7169 65.7292ZM7.74647 66.7432L7.61994 65.9917L6.72703 66.1421C6.48833 66.1823 6.32237 66.2405 6.22915 66.3168C6.13298 66.3936 6.09483 66.491 6.11467 66.6089C6.13601 66.7356 6.20273 66.8259 6.31483 66.8797C6.42644 66.9306 6.60602 66.9352 6.85356 66.8935L7.74647 66.7432Z" fill="black"/>
<path d="M11.1932 61.2563C11.2874 62.5798 10.6639 63.2893 9.32248 63.3848L8.7904 63.4227L8.67577 61.813L9.46271 61.757C9.61473 61.7462 9.73185 61.7079 9.81405 61.6421C9.89624 61.5763 9.93267 61.4779 9.92333 61.3467C9.90677 61.1142 9.72412 61.0104 9.37536 61.0352C9.08323 61.056 8.86998 61.1326 8.73561 61.265C8.59825 61.3976 8.46876 61.5567 8.34715 61.7421L7.75069 62.6429C7.56114 62.926 7.35509 63.1459 7.13256 63.3026C6.91004 63.4593 6.5916 63.5523 6.17726 63.5818C5.79273 63.6092 5.4688 63.5409 5.20546 63.3769C4.9419 63.2099 4.7383 62.9803 4.59464 62.6879C4.45078 62.3926 4.36632 62.069 4.34127 61.7173C4.24871 60.4176 4.85077 59.7216 6.14744 59.6293L6.27264 59.6204L6.39045 61.2747L6.13559 61.2929C6.00145 61.3024 5.87348 61.3355 5.75168 61.3921C5.62967 61.4458 5.57344 61.5396 5.583 61.6738C5.59913 61.9003 5.72643 62.0051 5.9649 61.9881C6.20635 61.9709 6.38884 61.8621 6.51237 61.6615L7.16603 60.6173C7.36752 60.2914 7.61434 60.0132 7.90651 59.7826C8.19847 59.5491 8.59931 59.4142 9.10903 59.3779C9.74097 59.3329 10.2352 59.479 10.5918 59.8161C10.9481 60.1502 11.1486 60.6303 11.1932 61.2563Z" fill="black"/>
<path d="M11.0878 57.2504C11.084 57.6837 10.9903 57.9758 10.8066 58.1266C10.62 58.2743 10.337 58.3465 9.95747 58.3432L5.7664 58.306L5.76239 58.7588L4.53869 58.7479L4.5427 58.2952L3.11729 58.2826L3.13111 56.7227L4.55652 56.7353L4.56053 56.2826L5.78423 56.2934L5.78022 56.7462L9.59476 56.7799C9.70533 56.7809 9.78318 56.7637 9.82833 56.7282C9.87347 56.6928 9.89649 56.6242 9.89739 56.5226C9.89802 56.4509 9.89262 56.3866 9.88117 56.3297L10.9749 56.3394C10.9865 56.3754 11.0079 56.4876 11.0391 56.6762C11.0733 56.8648 11.0896 57.0562 11.0878 57.2504Z" fill="black"/>
<path d="M11.1713 53.2069L4.53792 52.1073L4.79448 50.5595L5.56395 50.6871C5.30445 50.5714 5.11664 50.416 5.00052 50.2211C4.8844 50.0262 4.85371 49.7636 4.90844 49.4334C4.95242 49.1681 5.05172 48.9528 5.20633 48.7876C5.35848 48.6189 5.54115 48.5129 5.75433 48.4695C5.5562 48.3124 5.41456 48.1436 5.32941 47.9628C5.24179 47.7787 5.22316 47.5348 5.27349 47.2311C5.33458 46.8626 5.46109 46.5928 5.65303 46.4216C5.84252 46.247 6.08365 46.1446 6.37643 46.1144C6.66676 46.0808 6.9947 46.0942 7.36028 46.1548L12.2071 46.9582L11.9454 48.537L7.07205 47.7292C6.64457 47.6583 6.41274 47.732 6.37658 47.9501C6.35752 48.0651 6.38266 48.1601 6.452 48.2352C6.51839 48.3099 6.60712 48.3685 6.71819 48.4111C6.82926 48.4538 6.94228 48.4846 7.05726 48.5037L11.82 49.2932L11.5583 50.8719L6.68501 50.0641C6.54645 50.0411 6.40495 50.0359 6.26053 50.0483C6.11659 50.0577 6.03313 50.1318 6.01016 50.2703C5.99062 50.3882 6.01822 50.4867 6.09296 50.5658C6.16771 50.6448 6.26651 50.7066 6.38937 50.7512C6.50929 50.7953 6.62968 50.8274 6.75056 50.8474L11.4337 51.6237L11.1713 53.2069Z" fill="black"/>
<path d="M13.0059 44.7466C12.6312 46.0319 11.7768 46.4801 10.4427 46.0912L7.85204 45.3361C7.24381 45.1588 6.80871 44.8467 6.54674 44.3999C6.28189 43.9523 6.23728 43.4273 6.4129 42.8248C6.58936 42.2194 6.90953 41.7991 7.37341 41.5639C7.83443 41.3279 8.36905 41.2985 8.97727 41.4758L11.568 42.231C12.9021 42.6199 13.3814 43.4584 13.0059 44.7466ZM11.8181 44.4004C11.8557 44.2713 11.8366 44.1661 11.7607 44.0848C11.6827 43.9998 11.572 43.9364 11.4286 43.8946L8.2741 42.9751C7.89826 42.8655 7.67522 42.9313 7.60497 43.1723C7.53472 43.4133 7.68752 43.5885 8.06336 43.6981L11.2178 44.6176C11.3613 44.6594 11.4883 44.6669 11.5988 44.6399C11.7074 44.6093 11.7805 44.5295 11.8181 44.4004Z" fill="black"/>
<path d="M14.2673 41.0458C14.1519 41.3344 14.0077 41.5422 13.8345 41.6693C13.6614 41.7964 13.4652 41.8644 13.246 41.8732C13.0268 41.8821 12.7868 41.8505 12.526 41.7784C12.2663 41.7035 11.9935 41.6089 11.7077 41.4945L8.99409 40.4092C8.51407 40.2172 8.15946 39.9772 7.93027 39.6892C7.70218 39.3984 7.66971 39.0491 7.83285 38.6412C7.95382 38.3387 8.11169 38.1331 8.30647 38.0244C8.49958 37.9117 8.72904 37.857 8.99486 37.8604L7.2468 37.1612L7.85275 35.6462L15.1779 38.5761L14.572 40.091L13.9102 39.8264C14.1017 39.9995 14.2349 40.1815 14.3098 40.3724C14.3858 40.5605 14.3717 40.785 14.2673 41.0458ZM13.33 40.0095C13.3866 39.868 13.3675 39.7509 13.2726 39.6582C13.1788 39.5628 12.9849 39.4562 12.6907 39.3386L10.0645 38.2882C9.91744 38.2294 9.76428 38.1939 9.60501 38.1817C9.44408 38.1656 9.33421 38.231 9.27539 38.3781C9.21102 38.539 9.23849 38.6675 9.3578 38.7635C9.47712 38.8595 9.61724 38.9397 9.77817 39.0041L12.4044 40.0545C12.9261 40.2631 13.2346 40.2481 13.33 40.0095Z" fill="black"/>
<path d="M16.3733 36.3998C16.1536 36.8245 15.8989 37.1218 15.6092 37.2915C15.3195 37.4613 14.9966 37.5231 14.6404 37.4768C14.2841 37.4305 13.895 37.2982 13.4729 37.0799L11.0721 35.8381C10.5173 35.5512 10.1803 35.175 10.061 34.7096C9.93908 34.2428 10.0223 33.7307 10.3106 33.1732C10.9037 32.0265 11.7629 31.7443 12.8884 32.3264L13.3224 32.5508C13.848 32.8227 14.1982 33.0106 14.3732 33.1145L13.3024 35.185L14.457 35.7822C14.5632 35.8371 14.6715 35.8847 14.7819 35.9249C14.8896 35.9638 14.9883 35.9779 15.078 35.9671C15.1691 35.9536 15.2414 35.8951 15.2949 35.7916C15.3718 35.643 15.3562 35.5171 15.248 35.4141C15.1371 35.3096 14.9782 35.2039 14.7712 35.0968L14.1978 34.8002L14.9309 33.3828L15.2694 33.5578C15.7153 33.7885 16.0607 34.0378 16.3057 34.3058C16.5493 34.5698 16.6802 34.873 16.6982 35.2154C16.715 35.5538 16.6067 35.9486 16.3733 36.3998ZM12.5895 34.8264L12.9396 34.1495L12.1354 33.7335C11.9204 33.6223 11.7527 33.5692 11.6323 33.5742C11.5093 33.5779 11.4203 33.6328 11.3654 33.739C11.3064 33.8531 11.3055 33.9654 11.3628 34.0758C11.4215 34.1835 11.5623 34.295 11.7853 34.4104L12.5895 34.8264Z" fill="black"/>
<path d="M17.6255 33.9939L10.9111 29.8515L11.7678 28.4629L18.4822 32.6052L17.6255 33.9939Z" fill="black"/>
<path d="M20.0769 30.4197C19.2983 31.4941 18.3646 31.6367 17.2756 30.8476L16.8437 30.5346L17.7907 29.2279L18.4295 29.6908C18.5529 29.7803 18.6672 29.8262 18.7725 29.8287C18.8777 29.8311 18.9689 29.7791 19.0461 29.6727C19.1829 29.4839 19.1097 29.287 18.8266 29.0818C18.5894 28.9099 18.3768 28.8315 18.1888 28.8466C17.9983 28.8598 17.7969 28.8984 17.5846 28.9623L16.5486 29.2689C16.2214 29.3639 15.9222 29.3999 15.651 29.3769C15.3799 29.3538 15.0761 29.2204 14.7397 28.9767C14.4276 28.7504 14.2234 28.4899 14.1271 28.195C14.0325 27.8976 14.0242 27.5908 14.1021 27.2745C14.1818 26.9558 14.3251 26.6537 14.532 26.3681C15.2966 25.3131 16.2051 25.167 17.2578 25.9298L17.3594 26.0035L16.3861 27.3465L16.1793 27.1965C16.0704 27.1176 15.9511 27.0607 15.8214 27.0258C15.6934 26.9884 15.59 27.0242 15.5111 27.1331C15.3778 27.317 15.408 27.4791 15.6016 27.6193C15.7976 27.7614 16.0074 27.7953 16.2309 27.7211L17.4029 27.3414C17.7667 27.2213 18.1346 27.1668 18.5066 27.1781C18.8804 27.1869 19.2741 27.3412 19.6879 27.6411C20.2009 28.0129 20.4856 28.4425 20.542 28.9299C20.6002 29.4149 20.4452 29.9115 20.0769 30.4197Z" fill="black"/>
<path d="M22.7869 24.265C22.4794 24.5871 22.1406 24.7408 21.7703 24.7261C21.3979 24.7094 21.0485 24.5452 20.7222 24.2336C20.3936 23.9199 20.2134 23.5785 20.1816 23.2094C20.1498 22.8402 20.2877 22.4946 20.5952 22.1725C20.9026 21.8505 21.2415 21.6968 21.6117 21.7115C21.984 21.724 22.3344 21.8871 22.663 22.2007C22.9894 22.5123 23.1685 22.8548 23.2004 23.2282C23.2322 23.5974 23.0944 23.943 22.7869 24.265Z" fill="black"/>
<path d="M27.9082 21.9488L23.8993 16.9931L23.1709 17.5823L22.218 16.4044L24.9014 14.2335L25.8544 15.4115L25.126 16.0007L29.135 20.9564L27.9082 21.9488Z" fill="black"/>
<path d="M30.325 20.0266L25.9351 13.4713L27.3057 12.5534L28.3259 14.0768C28.2582 13.82 28.2656 13.592 28.3481 13.393C28.4289 13.1914 28.5686 13.0241 28.7672 12.891C29.1546 12.6316 29.5179 12.5646 29.8571 12.6899C30.1964 12.8151 30.5032 13.0826 30.7776 13.4923L33.6585 17.7942L32.3102 18.6971L29.4867 14.4809C29.4052 14.3592 29.3126 14.2774 29.2089 14.2353C29.1077 14.1916 29.0025 14.2063 28.8932 14.2795C28.8013 14.341 28.7547 14.4298 28.7533 14.5458C28.7543 14.6602 28.7915 14.772 28.8646 14.8813L31.6956 19.1087L30.325 20.0266Z" fill="black"/>
<path d="M35.9177 16.65C35.4963 16.8759 35.1181 16.9769 34.7832 16.9531C34.4483 16.9292 34.1471 16.7974 33.8795 16.5576C33.612 16.3179 33.3659 15.9887 33.1414 15.5699L31.8643 13.1876C31.5692 12.6372 31.5041 12.1363 31.6691 11.6851C31.8326 11.2312 32.191 10.856 32.7441 10.5595C33.8818 9.94947 34.7501 10.2028 35.3488 11.3196L35.5796 11.7502C35.8592 12.2717 36.0417 12.6248 36.1272 12.8095L34.0729 13.9109L34.6871 15.0566C34.7436 15.1619 34.8059 15.2624 34.8742 15.3581C34.941 15.4511 35.0144 15.5186 35.0945 15.5604C35.1772 15.6008 35.2699 15.5935 35.3727 15.5384C35.5201 15.4594 35.5784 15.3467 35.5475 15.2006C35.5152 15.0517 35.444 14.8746 35.3339 14.6692L35.0289 14.1003L36.4353 13.3463L36.6153 13.6821C36.8526 14.1245 36.9963 14.5256 37.0467 14.8851C37.0983 15.2406 37.0346 15.5647 36.8558 15.8572C36.6781 16.1457 36.3655 16.41 35.9177 16.65ZM33.688 13.2119L34.3596 12.8519L33.9317 12.0538C33.8174 11.8405 33.7091 11.7018 33.607 11.6379C33.5035 11.5713 33.3991 11.5663 33.2938 11.6228C33.1805 11.6835 33.1163 11.7756 33.1011 11.899C33.0885 12.021 33.1415 12.1926 33.2601 12.4139L33.688 13.2119Z" fill="black"/>
<path d="M43.0451 13.5689C42.7974 13.6572 42.5746 13.6684 42.3766 13.6025C42.1776 13.5338 41.9871 13.3908 41.8049 13.1734L42.0456 13.849L40.5087 14.3967L37.8602 6.96514L39.3972 6.41739L40.0292 8.19084C40.0389 7.92409 40.1022 7.69688 40.2194 7.5092C40.3383 7.31771 40.5512 7.16729 40.858 7.05794C41.2718 6.91047 41.6168 6.95724 41.8931 7.19826C42.1721 7.43826 42.3984 7.80177 42.572 8.28876L43.6825 11.4049C43.7979 11.7287 43.8572 12.0375 43.8604 12.3314C43.8654 12.6215 43.8021 12.8756 43.6705 13.0938C43.5407 13.3082 43.3322 13.4666 43.0451 13.5689ZM42.0004 12.6135C42.1608 12.5564 42.2298 12.4429 42.2074 12.2733C42.185 12.1036 42.1327 11.9033 42.0504 11.6725L41.1686 9.19813C41.0854 8.96448 40.9993 8.77627 40.9103 8.63348C40.8204 8.48788 40.6966 8.44317 40.5389 8.49935C40.3756 8.55753 40.3043 8.67337 40.3249 8.84687C40.3445 9.01755 40.3949 9.2169 40.4762 9.44491L41.358 11.9193C41.4392 12.1473 41.5267 12.335 41.6205 12.4824C41.7133 12.627 41.8399 12.6707 42.0004 12.6135Z" fill="black"/>
<path d="M46.742 12.5008C46.2781 12.6165 45.8867 12.6217 45.5678 12.5164C45.249 12.4111 44.9893 12.2095 44.7887 11.9115C44.5881 11.6135 44.4303 11.2339 44.3154 10.7729L43.6614 8.15021C43.5103 7.54419 43.57 7.04266 43.8406 6.64564C44.1105 6.24572 44.5499 5.96984 45.1588 5.81801C46.4114 5.50566 47.191 5.9642 47.4976 7.19364L47.6158 7.66773C47.7589 8.24185 47.8493 8.62895 47.8869 8.82901L45.6252 9.39297L45.9397 10.6543C45.9686 10.7703 46.0044 10.883 46.0471 10.9925C46.0891 11.0991 46.1438 11.1824 46.2111 11.2426C46.2814 11.3021 46.3731 11.3178 46.4862 11.2896C46.6485 11.2491 46.7327 11.1542 46.7386 11.0049C46.7437 10.8527 46.7181 10.6635 46.6617 10.4373L46.5055 9.81099L48.0539 9.42489L48.1461 9.7946C48.2676 10.2817 48.3086 10.7058 48.2693 11.0667C48.2321 11.424 48.091 11.7225 47.8458 11.9623C47.6029 12.1984 47.2349 12.3779 46.742 12.5008ZM45.4234 8.62095L46.1628 8.43657L45.9438 7.55799C45.8852 7.32312 45.8143 7.16217 45.731 7.07515C45.6469 6.98522 45.5469 6.95472 45.4309 6.98364C45.3063 7.01473 45.2214 7.08825 45.1764 7.20419C45.1343 7.3194 45.1436 7.49879 45.2043 7.74236L45.4234 8.62095Z" fill="black"/>
<path d="M51.1608 11.6318C49.8486 11.8283 49.0929 11.2616 48.8938 9.93162L48.8148 9.40407L50.4107 9.16507L50.5276 9.94531C50.5501 10.096 50.5974 10.2098 50.6693 10.2867C50.7413 10.3635 50.8423 10.3922 50.9723 10.3728C51.2028 10.3382 51.2922 10.1481 51.2404 9.80229C51.197 9.51266 51.1041 9.30599 50.9617 9.18227C50.8189 9.0556 50.6503 8.93882 50.456 8.83194L49.5117 8.30707C49.2147 8.14002 48.9795 7.95163 48.8061 7.74191C48.6327 7.53219 48.5152 7.22192 48.4537 6.81112C48.3966 6.42986 48.4396 6.10161 48.5827 5.82635C48.7287 5.55066 48.9419 5.32987 49.2223 5.164C49.5056 4.99768 49.8216 4.88841 50.1704 4.83618C51.459 4.64321 52.1995 5.18954 52.392 6.47516L52.4106 6.59929L50.7703 6.84492L50.7325 6.59223C50.7126 6.45924 50.6697 6.33422 50.6038 6.21717C50.5409 6.09968 50.4429 6.05089 50.3099 6.07081C50.0853 6.10444 49.9907 6.23948 50.0261 6.47592C50.062 6.71531 50.1847 6.88881 50.3942 6.99644L51.4859 7.56723C51.8264 7.74286 52.123 7.96739 52.3754 8.24082C52.6308 8.51381 52.7964 8.90299 52.8721 9.40837C52.9659 10.0349 52.8586 10.539 52.5501 10.9206C52.2446 11.3018 51.7815 11.5388 51.1608 11.6318Z" fill="black"/>
<path d="M55.1463 11.2168C54.714 11.2465 54.4156 11.1757 54.2511 11.0043C54.0893 10.8297 53.9954 10.5531 53.9693 10.1745L53.6816 5.99311L53.2299 6.02419L53.1459 4.80332L53.5976 4.77225L53.4998 3.35014L55.056 3.24307L55.1539 4.66517L55.6056 4.6341L55.6896 5.85496L55.2379 5.88604L55.4997 9.69173C55.5073 9.80204 55.5305 9.87833 55.5694 9.92059C55.6082 9.96285 55.6783 9.98049 55.7797 9.97351C55.8513 9.96859 55.915 9.95822 55.9708 9.9424L56.0459 11.0336C56.0109 11.048 55.9006 11.078 55.7151 11.1237C55.5297 11.1724 55.3401 11.2034 55.1463 11.2168Z" fill="black"/>
<path d="M59.1843 10.9866L59.7666 4.28798L61.3297 4.42386L61.2621 5.2009C61.3574 4.93321 61.4977 4.73393 61.683 4.60306C61.8684 4.47219 62.1278 4.42125 62.4612 4.45023C62.7292 4.47352 62.9515 4.55584 63.1282 4.69719C63.3081 4.83582 63.428 5.00972 63.4878 5.2189C63.629 5.0092 63.7864 4.8549 63.96 4.756C64.1368 4.65438 64.3785 4.6169 64.6852 4.64356C65.0573 4.67591 65.3362 4.78114 65.5216 4.95925C65.7104 5.13464 65.8312 5.36711 65.884 5.65667C65.94 5.94351 65.952 6.27152 65.9199 6.64069L65.4944 11.5352L63.9002 11.3966L64.328 6.4753C64.3655 6.04361 64.2741 5.81819 64.0538 5.79904C63.9377 5.78895 63.8449 5.82137 63.7754 5.89632C63.7061 5.96829 63.6545 6.0613 63.6206 6.17534C63.5867 6.28938 63.5647 6.40445 63.5546 6.52056L63.1365 11.3302L61.5423 11.1916L61.9701 6.27033C61.9822 6.1304 61.9765 5.98892 61.953 5.84589C61.9324 5.70312 61.8521 5.62565 61.7122 5.61348C61.5931 5.60313 61.4971 5.63828 61.4241 5.71892C61.3511 5.79957 61.2971 5.90286 61.2621 6.02881C61.2274 6.15178 61.2048 6.2743 61.1942 6.39636L60.7831 11.1256L59.1843 10.9866Z" fill="black"/>
<path d="M67.7613 12.1601C66.4508 11.8861 65.9377 11.0691 66.2221 9.70887L66.7743 7.06744C66.9039 6.44731 67.1813 5.98934 67.6064 5.69354C68.0322 5.39481 68.5522 5.30965 69.1665 5.43807C69.7837 5.5671 70.2275 5.85374 70.498 6.29801C70.769 6.73935 70.8397 7.27008 70.7101 7.89022L70.1579 10.5316C69.8735 11.8918 69.0747 12.4347 67.7613 12.1601ZM68.0144 10.9491C68.1461 10.9766 68.2495 10.9494 68.3246 10.8674C68.4033 10.7831 68.4579 10.6678 68.4885 10.5215L69.1608 7.30532C69.2409 6.92212 69.1581 6.70484 68.9124 6.65348C68.6667 6.60211 68.5038 6.76802 68.4237 7.15122L67.7513 10.3674C67.7208 10.5137 67.7232 10.6409 67.7586 10.7491C67.7975 10.8549 67.8828 10.9216 68.0144 10.9491Z" fill="black"/>
<path d="M71.5486 13.1312C71.2519 13.0385 71.0336 12.9107 70.8934 12.7479C70.7533 12.5852 70.6704 12.3949 70.6445 12.177C70.6187 11.9592 70.6316 11.7174 70.6833 11.4518C70.7379 11.1871 70.8111 10.9078 70.9029 10.614L71.7748 7.82444C71.929 7.33099 72.1408 6.95885 72.4102 6.70803C72.6824 6.45811 73.0282 6.39867 73.4475 6.52972C73.7584 6.62689 73.9756 6.76836 74.0991 6.95412C74.2264 7.13793 74.2987 7.36247 74.316 7.62774L74.8776 5.83077L76.435 6.31752L74.0815 13.8477L72.5241 13.3609L72.7367 12.6806C72.5789 12.8849 72.4078 13.0318 72.2233 13.1213C72.0416 13.2117 71.8167 13.215 71.5486 13.1312ZM72.5092 12.1164C72.6546 12.1619 72.7699 12.1337 72.8549 12.0319C72.9428 11.931 73.034 11.7294 73.1285 11.427L73.9723 8.72731C74.0196 8.57614 74.0431 8.42068 74.0429 8.26095C74.0465 8.09926 73.9727 7.99479 73.8215 7.94754C73.6561 7.89583 73.5301 7.93317 73.4437 8.05957C73.3572 8.18596 73.2881 8.33187 73.2364 8.49731L72.3926 11.197C72.225 11.7333 72.2639 12.0397 72.5092 12.1164Z" fill="black"/>
<path d="M76.3439 14.8706C75.9034 14.6845 75.5874 14.4536 75.3956 14.1779C75.2039 13.9023 75.1173 13.5851 75.1359 13.2263C75.1545 12.8676 75.2562 12.4694 75.4412 12.0317L76.4932 9.5418C76.7363 8.96647 77.0852 8.60132 77.54 8.44635C77.996 8.28863 78.513 8.33189 79.0911 8.57615C80.2802 9.07862 80.6283 9.91343 80.1351 11.0806L79.9449 11.5307C79.7146 12.0757 79.5544 12.4395 79.4643 12.6221L77.3172 11.7148L76.8112 12.9123C76.7647 13.0224 76.7256 13.134 76.694 13.2472C76.6636 13.3576 76.6572 13.4571 76.675 13.5457C76.6954 13.6355 76.7593 13.703 76.8667 13.7484C77.0209 13.8135 77.1451 13.7882 77.2395 13.6723C77.335 13.5537 77.4282 13.3871 77.5189 13.1723L77.7701 12.5777L79.2401 13.1989L79.0918 13.5498C78.8964 14.0123 78.6746 14.376 78.4264 14.641C78.1821 14.9043 77.8899 15.0583 77.5499 15.1028C77.2139 15.1457 76.8119 15.0683 76.3439 14.8706ZM77.6195 10.9763L78.3214 11.2729L78.6739 10.4389C78.7681 10.2159 78.808 10.0446 78.7936 9.92498C78.7805 9.80262 78.7188 9.71818 78.6087 9.67165C78.4903 9.62164 78.3784 9.62947 78.2727 9.69515C78.1699 9.76199 78.0696 9.91103 77.9719 10.1423L77.6195 10.9763Z" fill="black"/>
<path d="M78.8395 15.9327L82.4492 8.91751L83.9001 9.66406L80.2904 16.6792L78.8395 15.9327Z" fill="black"/>
<path d="M82.5928 18.1C81.4613 17.407 81.2468 16.4871 81.9492 15.3403L82.2278 14.8855L83.6039 15.7283L83.1918 16.4011C83.1122 16.5311 83.0753 16.6486 83.081 16.7537C83.0867 16.8588 83.1456 16.9457 83.2577 17.0144C83.4565 17.1362 83.6472 17.048 83.8298 16.7498C83.9828 16.5001 84.0445 16.282 84.0149 16.0957C83.9869 15.9068 83.9329 15.709 83.8527 15.5023L83.4668 14.4932C83.3467 14.1743 83.2876 13.8788 83.2896 13.6067C83.2916 13.3345 83.4011 13.0213 83.618 12.6671C83.8194 12.3384 84.0633 12.1146 84.3499 11.9957C84.639 11.8784 84.9442 11.8464 85.2656 11.8995C85.5896 11.9543 85.9019 12.0737 86.2026 12.2579C87.3137 12.9384 87.5297 13.833 86.8508 14.9415L86.7852 15.0485L85.3709 14.1823L85.5043 13.9644C85.5746 13.8497 85.6221 13.7264 85.6468 13.5944C85.6742 13.4639 85.6305 13.3636 85.5158 13.2933C85.3221 13.1747 85.1629 13.2173 85.038 13.4212C84.9116 13.6276 84.894 13.8394 84.9853 14.0565L85.4546 15.1955C85.6026 15.549 85.6854 15.9116 85.703 16.2833C85.7232 16.6566 85.5998 17.0612 85.3329 17.497C85.002 18.0372 84.5958 18.3543 84.1141 18.4484C83.6351 18.5439 83.128 18.4278 82.5928 18.1Z" fill="black"/>
<path d="M88.9392 20.3249C88.5943 20.0433 88.4148 19.7174 88.4008 19.3471C88.3886 18.9745 88.5252 18.6135 88.8106 18.2639C89.0979 17.9121 89.4243 17.706 89.7899 17.6457C90.1555 17.5854 90.5107 17.696 90.8556 17.9776C91.2005 18.2592 91.38 18.5852 91.3941 18.9554C91.4104 19.3276 91.275 19.6896 90.9877 20.0414C90.7023 20.391 90.3747 20.5961 90.005 20.6568C89.6394 20.7171 89.2841 20.6065 88.9392 20.3249Z" fill="black"/>
<path d="M91.6453 25.2515L96.2756 20.8707L95.6317 20.1901L96.7322 19.1488L99.1045 21.656L98.0039 22.6973L97.36 22.0168L92.7298 26.3977L91.6453 25.2515Z" fill="black"/>
<path d="M93.7487 27.5119L99.9441 22.6273L100.965 23.9227L99.5257 25.0578C99.7765 24.9704 100.004 24.9601 100.209 25.0269C100.416 25.0919 100.594 25.2182 100.742 25.4059C101.031 25.772 101.126 26.1291 101.027 26.477C100.929 26.8249 100.686 27.1516 100.298 27.4568L96.2327 30.6624L95.228 29.3881L99.2127 26.2464C99.3277 26.1557 99.4022 26.0571 99.4361 25.9504C99.4718 25.8461 99.449 25.7424 99.3676 25.6391C99.2991 25.5523 99.207 25.5127 99.0912 25.5202C98.9772 25.5302 98.8686 25.5758 98.7654 25.6572L94.77 28.8073L93.7487 27.5119Z" fill="black"/>
<path d="M97.5484 32.8264C97.2905 32.4238 97.1605 32.0546 97.1583 31.7188C97.1562 31.3831 97.2643 31.0725 97.4826 30.7872C97.7008 30.5019 98.01 30.2311 98.4102 29.9748L100.686 28.517C101.212 28.1801 101.707 28.0764 102.169 28.2059C102.634 28.3338 103.036 28.662 103.375 29.1905C104.071 30.2776 103.886 31.1628 102.819 31.8462L102.407 32.1098C101.909 32.4289 101.571 32.6382 101.394 32.7378L100.136 30.7749L99.0417 31.4761C98.941 31.5405 98.8456 31.6105 98.7555 31.6859C98.668 31.7598 98.6064 31.8382 98.5709 31.9213C98.537 32.0069 98.5515 32.0988 98.6144 32.1969C98.7046 32.3378 98.8214 32.3872 98.9648 32.3451C99.1107 32.3013 99.2818 32.2166 99.478 32.0909L100.022 31.7427L100.882 33.0865L100.561 33.292C100.139 33.5628 99.75 33.7372 99.3954 33.8153C99.045 33.8942 98.717 33.8559 98.4115 33.7003C98.1101 33.5455 97.8224 33.2542 97.5484 32.8264ZM100.803 30.337L101.214 30.9787L101.977 30.4904C102.181 30.3598 102.311 30.2412 102.366 30.1344C102.425 30.0261 102.422 29.9215 102.357 29.8209C102.288 29.7127 102.191 29.6558 102.067 29.6502C101.944 29.6471 101.777 29.7133 101.566 29.8487L100.803 30.337Z" fill="black"/>
<path d="M101.172 39.6934C101.065 39.4532 101.037 39.2319 101.087 39.0294C101.14 38.8258 101.268 38.6247 101.471 38.4262L100.816 38.7186L100.151 37.2287L107.355 34.0124L108.02 35.5024L106.301 36.2699C106.567 36.2588 106.799 36.3044 106.995 36.4066C107.195 36.5104 107.362 36.7109 107.494 37.0084C107.673 37.4095 107.654 37.7571 107.435 38.0512C107.217 38.348 106.872 38.6018 106.4 38.8126L103.379 40.1612C103.065 40.3013 102.762 40.3843 102.469 40.4103C102.181 40.4378 101.922 40.3944 101.695 40.2801C101.471 40.1673 101.297 39.9717 101.172 39.6934ZM102.044 38.5777C102.113 38.7333 102.232 38.7933 102.399 38.7578C102.567 38.7223 102.762 38.6546 102.986 38.5547L105.385 37.4839C105.611 37.3828 105.792 37.2823 105.928 37.1826C106.066 37.0816 106.101 36.9547 106.033 36.8019C105.962 36.6436 105.841 36.5815 105.669 36.6155C105.501 36.6482 105.306 36.7139 105.085 36.8126L102.686 37.8835C102.465 37.9821 102.285 38.0839 102.145 38.1889C102.008 38.2926 101.975 38.4222 102.044 38.5777Z" fill="black"/>
<path d="M102.524 43.2964C102.373 42.8428 102.337 42.453 102.417 42.127C102.498 41.8009 102.679 41.5264 102.96 41.3033C103.242 41.0802 103.608 40.8935 104.059 40.7432L106.623 39.888C107.215 39.6904 107.72 39.7111 108.137 39.9501C108.556 40.1882 108.865 40.6049 109.064 41.2002C109.472 42.4249 109.076 43.2377 107.874 43.6386L107.41 43.7931C106.849 43.9803 106.47 44.1004 106.273 44.1534L105.536 41.9422L104.303 42.3535C104.189 42.3913 104.08 42.4357 103.974 42.4868C103.871 42.5369 103.792 42.5978 103.737 42.6697C103.683 42.7443 103.675 42.837 103.712 42.9475C103.765 43.1063 103.866 43.1828 104.015 43.1771C104.167 43.1705 104.354 43.1303 104.575 43.0565L105.187 42.8523L105.692 44.3661L105.331 44.4867C104.855 44.6455 104.435 44.7193 104.072 44.708C103.713 44.6986 103.404 44.581 103.146 44.3552C102.892 44.1313 102.685 43.7784 102.524 43.2964ZM106.29 41.6812L106.531 42.4041L107.39 42.1176C107.62 42.041 107.775 41.9579 107.855 41.8681C107.938 41.7773 107.961 41.6753 107.923 41.5619C107.882 41.44 107.802 41.3611 107.683 41.3252C107.565 41.2921 107.387 41.3153 107.149 41.3947L106.29 41.6812Z" fill="black"/>
<path d="M103.733 47.6347C103.435 46.3416 103.941 45.5443 105.252 45.2427L105.772 45.1231L106.134 46.6957L105.365 46.8726C105.216 46.9068 105.107 46.9627 105.036 47.0404C104.964 47.1181 104.944 47.221 104.973 47.3492C105.025 47.5763 105.222 47.6507 105.563 47.5723C105.848 47.5066 106.047 47.398 106.159 47.2464C106.274 47.0941 106.378 46.917 106.469 46.715L106.919 45.7329C107.063 45.4239 107.233 45.1748 107.428 44.9856C107.624 44.7965 107.924 44.6553 108.329 44.5621C108.705 44.4757 109.035 44.4931 109.321 44.6145C109.607 44.7387 109.844 44.9342 110.031 45.2009C110.218 45.4704 110.352 45.777 110.431 46.1207C110.723 47.3904 110.236 48.1711 108.969 48.4626L108.847 48.4908L108.475 46.8745L108.724 46.8172C108.855 46.787 108.976 46.7346 109.088 46.6598C109.2 46.588 109.241 46.4865 109.211 46.3555C109.16 46.1342 109.018 46.0503 108.785 46.1039C108.549 46.1582 108.386 46.294 108.295 46.5112L107.81 47.6438C107.661 47.997 107.46 48.31 107.207 48.5829C106.955 48.8587 106.58 49.0539 106.082 49.1685C105.464 49.3106 104.954 49.2426 104.549 48.9647C104.145 48.6896 103.873 48.2463 103.733 47.6347Z" fill="black"/>
<path d="M104.455 51.5763C104.392 51.1476 104.44 50.8446 104.598 50.6672C104.759 50.4924 105.028 50.3773 105.403 50.322L109.55 49.7113L109.484 49.2634L110.695 49.085L110.761 49.5329L112.171 49.3252L112.398 50.8685L110.988 51.0762L111.054 51.5241L109.843 51.7025L109.777 51.2546L106.003 51.8105C105.894 51.8266 105.82 51.8556 105.78 51.8976C105.741 51.9397 105.729 52.0109 105.744 52.1114C105.754 52.1824 105.77 52.2451 105.79 52.2995L104.708 52.4589C104.691 52.4252 104.652 52.3176 104.592 52.1361C104.529 51.9551 104.484 51.7685 104.455 51.5763Z" fill="black"/>
<path d="M104.998 55.5841L111.721 55.6457L111.707 57.2145L110.927 57.2074C111.201 57.2816 111.411 57.4061 111.555 57.5807C111.7 57.7554 111.771 58.0101 111.768 58.3448C111.766 58.6137 111.701 58.8417 111.574 59.0288C111.449 59.219 111.285 59.352 111.081 59.4278C111.301 59.5523 111.467 59.6973 111.579 59.8627C111.694 60.0311 111.751 60.2692 111.748 60.577C111.744 60.9505 111.661 61.2367 111.498 61.4354C111.338 61.6372 111.115 61.7756 110.83 61.8507C110.549 61.9288 110.223 61.9662 109.852 61.9628L104.939 61.9178L104.954 60.3175L109.894 60.3628C110.327 60.3667 110.545 60.2582 110.547 60.037C110.548 59.9205 110.508 59.8305 110.428 59.767C110.351 59.7035 110.254 59.6593 110.138 59.6343C110.022 59.6094 109.905 59.5963 109.789 59.5953L104.961 59.551L104.976 57.9508L109.915 57.9961C110.056 57.9974 110.197 57.9807 110.337 57.9461C110.478 57.9146 110.549 57.8285 110.55 57.6881C110.551 57.5686 110.509 57.4755 110.423 57.409C110.337 57.3425 110.23 57.2966 110.101 57.2716C109.976 57.2465 109.852 57.2334 109.73 57.2323L104.983 57.1888L104.998 55.5841Z" fill="black"/>
<path d="M104.492 64.2262C104.663 62.8984 105.438 62.3236 106.817 62.5017L109.493 62.8476C110.121 62.9288 110.599 63.1699 110.927 63.5708C111.258 63.9721 111.383 64.484 111.303 65.1064C111.222 65.7317 110.97 66.1964 110.548 66.5005C110.129 66.8049 109.606 66.9165 108.977 66.8353L106.301 66.4894C104.923 66.3113 104.32 65.5569 104.492 64.2262ZM105.719 64.3847C105.702 64.5181 105.737 64.6191 105.824 64.6877C105.915 64.7596 106.034 64.8051 106.182 64.8243L109.441 65.2454C109.829 65.2956 110.039 65.1962 110.071 64.9472C110.103 64.6983 109.925 64.5487 109.537 64.4985L106.278 64.0774C106.13 64.0582 106.004 64.0705 105.898 64.1142C105.796 64.1612 105.736 64.2514 105.719 64.3847Z" fill="black"/>
<path d="M103.817 68.0774C103.887 67.7745 103.997 67.5469 104.149 67.3946C104.3 67.2423 104.483 67.1448 104.698 67.1022C104.914 67.0595 105.156 67.0537 105.424 67.0847C105.693 67.1186 105.977 67.1699 106.277 67.2387L109.126 67.8918C109.629 68.0073 110.017 68.1897 110.288 68.4388C110.558 68.6909 110.644 69.031 110.546 69.4592C110.473 69.7767 110.349 70.0042 110.173 70.1418C110 70.2829 109.782 70.3724 109.519 70.4101L111.354 70.8309L110.989 72.4213L103.299 70.6582L103.664 69.0678L104.358 69.2271C104.143 69.0856 103.983 68.9264 103.879 68.7493C103.775 68.5752 103.754 68.3512 103.817 68.0774ZM104.903 68.9565C104.869 69.1051 104.906 69.2178 105.014 69.2947C105.122 69.3745 105.33 69.4498 105.639 69.5206L108.396 70.1527C108.55 70.1881 108.707 70.1995 108.866 70.187C109.028 70.178 109.126 70.0963 109.161 69.9419C109.2 69.773 109.153 69.6503 109.02 69.5739C108.888 69.4975 108.737 69.4399 108.568 69.4012L105.811 68.7691C105.263 68.6435 104.961 68.706 104.903 68.9565Z" fill="black"/>
<path d="M102.455 72.9931C102.606 72.5395 102.812 72.2065 103.072 71.994C103.332 71.7815 103.642 71.6706 104.001 71.6613C104.36 71.652 104.765 71.7226 105.215 71.8731L107.779 72.7291C108.372 72.9269 108.763 73.2465 108.953 73.6879C109.145 74.1302 109.142 74.649 108.943 75.2443C108.534 76.4689 107.729 76.8805 106.527 76.4792L106.064 76.3245C105.503 76.1371 105.127 76.0056 104.938 75.9299L105.677 73.7189L104.444 73.3073C104.33 73.2694 104.216 73.2391 104.101 73.2164C103.988 73.1946 103.888 73.196 103.801 73.2205C103.714 73.2479 103.651 73.3168 103.614 73.4274C103.561 73.5861 103.596 73.708 103.719 73.7931C103.845 73.8792 104.018 73.9591 104.239 74.0329L104.851 74.2374L104.346 75.751L103.985 75.6304C103.508 75.4714 103.129 75.2784 102.845 75.0515C102.564 74.8283 102.388 74.549 102.317 74.2135C102.248 73.8817 102.294 73.4749 102.455 72.9931ZM106.436 73.9631L106.195 74.6859L107.054 74.9727C107.283 75.0493 107.457 75.0759 107.576 75.0523C107.696 75.0297 107.776 74.9617 107.814 74.8483C107.854 74.7264 107.838 74.6154 107.764 74.5151C107.69 74.4178 107.533 74.3293 107.295 74.2498L106.436 73.9631Z" fill="black"/>
<path d="M101.589 75.5635L108.863 78.6189L108.231 80.1232L100.957 77.0679L101.589 75.5635Z" fill="black"/>
<path d="M99.7189 79.4735C100.322 78.2917 101.223 78.0065 102.42 78.618L102.896 78.8605L102.162 80.2978L101.459 79.9391C101.323 79.8698 101.203 79.8421 101.099 79.8559C100.995 79.8697 100.913 79.9352 100.853 80.0523C100.747 80.2599 100.849 80.4432 101.161 80.6022C101.422 80.7353 101.644 80.7799 101.827 80.736C102.014 80.6935 102.207 80.6243 102.406 80.5284L103.383 80.0654C103.691 79.921 103.981 79.8392 104.253 79.8201C104.524 79.8009 104.845 79.8858 105.215 80.0747C105.558 80.25 105.8 80.4758 105.941 80.7523C106.08 81.0315 106.136 81.3333 106.108 81.6579C106.078 81.9851 105.983 82.3057 105.823 82.6198C105.231 83.7803 104.356 84.065 103.198 83.4739L103.086 83.4169L103.84 81.9397L104.068 82.0558C104.187 82.117 104.314 82.1548 104.448 82.1693C104.58 82.1864 104.676 82.1351 104.738 82.0153C104.841 81.813 104.786 81.6575 104.573 81.5488C104.358 81.4388 104.145 81.4377 103.936 81.5455L102.836 82.1017C102.495 82.2766 102.14 82.3872 101.771 82.4336C101.4 82.4826 100.988 82.391 100.532 82.1586C99.9682 81.8706 99.6205 81.4901 99.4895 81.0172C99.3571 80.547 99.4336 80.0324 99.7189 79.4735Z" fill="black"/>
<path d="M97.9927 85.973C98.2467 85.6073 98.5578 85.4031 98.9258 85.3604C99.2963 85.3194 99.6669 85.4276 100.037 85.6851C100.411 85.9442 100.641 86.2537 100.73 86.6135C100.818 86.9733 100.735 87.3361 100.481 87.7018C100.227 88.0675 99.9163 88.2717 99.5482 88.3144C99.1785 88.3595 98.8071 88.2525 98.434 87.9934C98.0634 87.7359 97.8335 87.4252 97.7443 87.0612C97.6559 86.7014 97.7387 86.3387 97.9927 85.973Z" fill="black"/>
<path d="M93.2901 89.0526L98.0166 93.3295L98.6452 92.6348L99.7686 93.6514L97.4527 96.2107L96.3293 95.1941L96.9579 94.4994L92.2314 90.2225L93.2901 89.0526Z" fill="black"/>
<path d="M91.2 91.325L96.5499 97.1234L95.3375 98.242L94.0943 96.8945C94.2008 97.1378 94.2287 97.3641 94.178 97.5736C94.1293 97.7852 94.0171 97.9721 93.8414 98.1342C93.4988 98.4504 93.1502 98.5727 92.7957 98.5014C92.4411 98.43 92.0967 98.2131 91.7623 97.8507L88.2514 94.0456L89.444 92.9452L92.885 96.6746C92.9843 96.7822 93.0884 96.8488 93.1974 96.8743C93.3041 96.9019 93.4058 96.8711 93.5024 96.7819C93.5837 96.7069 93.6161 96.612 93.5995 96.4971C93.5808 96.3843 93.5269 96.2796 93.4377 96.1829L89.9876 92.4436L91.2 91.325Z" fill="black"/>
<path d="M86.1955 95.525C86.5769 95.2367 86.935 95.0785 87.2696 95.0504C87.6042 95.0222 87.9221 95.1059 88.2235 95.3014C88.5249 95.4969 88.8188 95.7842 89.1053 96.1633L90.7351 98.3196C91.1117 98.8179 91.2534 99.3027 91.1601 99.774C91.0687 100.248 90.7726 100.674 90.2719 101.052C89.242 101.831 88.3451 101.714 87.5811 100.704L87.2865 100.314C86.9297 99.8418 86.6948 99.5211 86.5818 99.3518L88.4413 97.9463L87.6575 96.9092C87.5854 96.8138 87.5083 96.7242 87.4261 96.6402C87.3457 96.5586 87.2627 96.5034 87.1771 96.4744C87.0892 96.4472 86.9987 96.4688 86.9057 96.5391C86.7722 96.64 86.732 96.7602 86.7851 96.8999C86.8401 97.0419 86.9378 97.2059 87.0783 97.3919L87.4676 97.9069L86.1945 98.8691L85.9647 98.5651C85.662 98.1646 85.458 97.7906 85.3527 97.4432C85.2468 97.0999 85.2597 96.7699 85.3912 96.4532C85.5221 96.1408 85.7902 95.8314 86.1955 95.525ZM88.9296 98.5774L88.3217 99.0369L88.8677 99.7592C89.0136 99.9523 89.142 100.073 89.2527 100.12C89.3653 100.17 89.4692 100.159 89.5646 100.087C89.6671 100.009 89.7163 99.9082 89.7123 99.7839C89.7058 99.6614 89.6269 99.5 89.4756 99.2998L88.9296 98.5774Z" fill="black"/>
</svg>
