<svg width="34" height="32" viewBox="0 0 34 32" fill="none" xmlns="http://www.w3.org/2000/svg">
<path d="M10.3333 10H23.6667M10.3333 16.6667H20.3333M27 1.66667C28.3261 1.66667 29.5979 2.19346 30.5355 3.13114C31.4732 4.06882 32 5.34059 32 6.66667V20C32 21.3261 31.4732 22.5979 30.5355 23.5355C29.5979 24.4732 28.3261 25 27 25H18.6667L10.3333 30V25H7C5.67392 25 4.40215 24.4732 3.46447 23.5355C2.52678 22.5979 2 21.3261 2 20V6.66667C2 5.34059 2.52678 4.06882 3.46447 3.13114C4.40215 2.19346 5.67392 1.66667 7 1.66667H27Z" stroke="white" stroke-width="2.5" stroke-linecap="round" stroke-linejoin="round"/>
</svg>
