<svg width="88" height="88" viewBox="0 0 88 88" fill="none" xmlns="http://www.w3.org/2000/svg">
<rect x="18.3333" y="18.3333" width="51.3333" height="51.3333" fill="#F56938"/>
<rect x="44" y="7.70193" width="51.3333" height="51.3333" transform="rotate(45 44 7.70193)" fill="#F56938"/>
<path d="M69.3729 62.9138L69.8419 57.0507C69.9598 55.5735 70.5422 54.1723 71.5034 53.0444L75.3169 48.5645C77.5599 45.9325 77.5595 42.0627 75.3165 39.4307L71.5031 34.9533C70.5419 33.8254 69.9586 32.4228 69.8408 30.9457L69.3747 25.0834C69.0996 21.6363 66.3615 18.8981 62.9144 18.623L57.0512 18.154C55.574 18.0361 54.1736 17.4586 53.0457 16.4974L48.5688 12.6822C45.9368 10.4393 42.0632 10.4393 39.4312 12.6822L34.9538 16.4957C33.8259 17.4569 32.4234 18.0393 30.9462 18.1572L25.0828 18.6251M69.3764 62.9163C69.1013 66.3634 66.364 69.1008 62.9168 69.3758M62.9149 69.3723L57.0516 69.8402C55.5744 69.9581 54.1726 70.5378 53.0447 71.499L48.5688 75.316C45.9368 77.559 42.0628 77.5594 39.4308 75.3164L34.9549 71.5029C33.827 70.5417 32.4253 69.9593 30.9481 69.8414L25.0828 69.3723M25.0863 69.3758C21.6392 69.1008 18.9019 66.3634 18.6268 62.9163L18.1577 57.0511C18.0398 55.5739 17.4574 54.1721 16.4962 53.0442L12.6828 48.5683C10.4398 45.9363 10.4387 42.0623 12.6817 39.4303L16.4986 34.9544C17.4598 33.8265 18.0366 32.4247 18.1545 30.9475L18.6236 25.0823M18.6268 25.0858C18.9019 21.6387 21.6392 18.9013 25.0863 18.6263" stroke="#F56938" stroke-width="7.33333" stroke-linecap="round" stroke-linejoin="round"/>
</svg>


