<svg width="48" height="48" viewBox="0 0 48 48" fill="none" xmlns="http://www.w3.org/2000/svg">
<path fill-rule="evenodd" clip-rule="evenodd" d="M32.2761 32.8093C33.3261 32.1151 36.5032 29.9436 38.0917 25.6927C39.3704 22.2663 38.9368 19.307 38.6937 17.7868C38.4316 16.1442 37.8899 12.9895 35.3848 10.0666C32.3381 6.51153 28.4065 5.59654 27.0658 5.35509C25.6076 5.11256 24.1223 5.07887 22.6545 5.25502C21.4092 5.39322 16.5499 6.02226 13.0314 9.86169C11.8619 11.1687 10.9133 12.6576 10.2229 14.2698C9.9165 14.9814 9.66117 15.714 9.45882 16.4619C9.31324 16.9295 9.20332 17.4074 9.13 17.8916C9.05645 18.3769 9.01928 18.867 9.0188 19.3578V42.8677H16.569V35.3191H24.9595L25.4996 35.2937C25.848 35.2773 26.1941 35.2289 26.5337 35.1491L26.6639 35.119C28.6669 34.7207 30.5731 33.9362 32.2761 32.8093ZM28.0696 26.312C27.2202 26.8725 26.2703 27.263 25.2723 27.4621L25.2103 27.4827C25.0408 27.5223 24.868 27.5462 24.694 27.5542L24.424 27.5669H16.4815V19.3607C16.4805 19.0376 16.5287 18.7162 16.6244 18.4076L16.6991 18.1645C16.8003 17.7917 16.9277 17.4265 17.0803 17.0717C17.4248 16.2688 17.8968 15.5269 18.4782 14.8748C20.2335 12.9606 22.6528 12.6477 23.2739 12.5778C24.0048 12.4891 24.7446 12.5057 25.4708 12.627C27.0791 12.9167 28.5411 13.7446 29.6168 14.9748C30.8654 16.4378 31.1354 18.0025 31.2657 18.8206C31.5224 20.1389 31.4186 21.5021 30.9655 22.7665C30.4016 24.226 29.3872 25.468 28.0696 26.312Z" fill="url(#paint0_linear_649_1713)"/>
<defs>
<linearGradient id="paint0_linear_649_1713" x1="12.4389" y1="33.3907" x2="32.2078" y2="10.8974" gradientUnits="userSpaceOnUse">
<stop stop-color="#6F99E5"/>
<stop offset="1" stop-color="#545BC5"/>
</linearGradient>
</defs>
</svg>
