<svg width="1920" height="1080" viewBox="0 0 1920 1080" fill="none" xmlns="http://www.w3.org/2000/svg">
<rect width="1920" height="1080" fill="#545BC4"/>
<path fill-rule="evenodd" clip-rule="evenodd" d="M1053.7 639.031C1065.54 631.202 1101.37 606.71 1119.29 558.765C1133.71 520.119 1128.82 486.741 1126.08 469.595C1123.12 451.069 1117.01 415.487 1088.76 382.521C1054.39 342.424 1010.05 332.104 994.929 329.38C978.482 326.645 961.729 326.265 945.175 328.252C931.128 329.81 876.322 336.905 836.637 380.209C823.446 394.951 812.747 411.744 804.96 429.928C801.505 437.954 798.625 446.217 796.342 454.653C794.701 459.926 793.461 465.316 792.634 470.777C791.804 476.251 791.385 481.778 791.38 487.314V752.479H876.537V667.339H971.172L977.263 667.053C981.193 666.868 985.097 666.322 988.927 665.422L990.396 665.082C1012.99 660.591 1034.49 651.742 1053.7 639.031ZM1006.25 565.753C996.672 572.075 985.958 576.48 974.701 578.724L974.003 578.957C972.09 579.404 970.141 579.674 968.18 579.764L965.134 579.907H875.551V487.35C875.541 483.706 876.085 480.081 877.164 476.6L878.006 473.859C879.147 469.654 880.584 465.535 882.306 461.533C886.191 452.477 891.515 444.109 898.072 436.754C917.87 415.165 945.157 411.635 952.162 410.847C960.406 409.847 968.75 410.034 976.941 411.402C995.081 414.67 1011.57 424.008 1023.7 437.883C1037.79 454.384 1040.83 472.032 1042.3 481.259C1045.2 496.128 1044.03 511.503 1038.91 525.763C1032.55 542.226 1021.11 556.233 1006.25 565.753Z" fill="url(#paint0_linear_158_1190)"/>
<defs>
<linearGradient id="paint0_linear_158_1190" x1="829.954" y1="645.589" x2="1052.92" y2="391.891" gradientUnits="userSpaceOnUse">
<stop stop-color="white"/>
<stop offset="1" stop-color="white"/>
</linearGradient>
</defs>
</svg>
